{
	"asset": {
		"generator": "Blocks 2.0.1_SVR_RC5",
		"version": "1.1",
		"copyright": "Unknown"
	},
	"buffers": {
		"model": {
			"byteLength": 53076,
			"type": "arraybuffer",
			"uri": "model.bin"
		}
	},
	"accessors": {
		"accessor_position_m0-PolyPaper14_-205870": {
			"bufferView": "vec3BufferView",
			"byteOffset": 0,
			"byteStride": 12,
			"componentType": 5126,
			"count": 552,
			"max": [ -0.4215401, 2.170442, 0.388491 ],
			"min": [ -0.6184487, 1.929966, 0.1915822 ],
			"type": "VEC3"
		 },
		"accessor_normal_m0-PolyPaper14_-205870": {
			"bufferView": "vec3BufferView",
			"byteOffset": 6624,
			"byteStride": 12,
			"componentType": 5126,
			"count": 552,
			"max": [ 0.9532281, 1, 0.9532269 ],
			"min": [ -0.9532281, -1, -0.9532269 ],
			"type": "VEC3"
		 },
		"accessor_color_m0-PolyPaper14_-205870": {
			"bufferView": "vec4BufferView",
			"byteOffset": 0,
			"byteStride": 16,
			"componentType": 5126,
			"count": 552,
			"max": [ 1, 0.3411765, 0.1333333, 1 ],
			"min": [ 1, 0.3411765, 0.1333333, 1 ],
			"type": "VEC4"
		 },
		"accessor_indices_0_m0-PolyPaper14_-205870": {
			"bufferView": "ushortBufferView",
			"byteOffset": 0,
			"byteStride": 0,
			"componentType": 5123,
			"count": 780,
			"max": [ 551 ],
			"min": [ 0 ],
			"type": "SCALAR"
		 },
		"accessor_position_m1-PolyGlass24_-205868": {
			"bufferView": "vec3BufferView",
			"byteOffset": 13248,
			"byteStride": 12,
			"componentType": 5126,
			"count": 684,
			"max": [ -0.4099943, 2.229966, 0.4000355 ],
			"min": [ -0.6299944, 1.919966, 0.1800354 ],
			"type": "VEC3"
		 },
		"accessor_normal_m1-PolyGlass24_-205868": {
			"bufferView": "vec3BufferView",
			"byteOffset": 21456,
			"byteStride": 12,
			"componentType": 5126,
			"count": 684,
			"max": [ 0.9659274, 0.7158691, 0.9659259 ],
			"min": [ -0.9659266, -1, -0.9659261 ],
			"type": "VEC3"
		 },
		"accessor_color_m1-PolyGlass24_-205868": {
			"bufferView": "vec4BufferView",
			"byteOffset": 8832,
			"byteStride": 16,
			"componentType": 5126,
			"count": 684,
			"max": [ 0.8392157, 0.8392157, 0.8392157, 0.2509804 ],
			"min": [ 0.8392157, 0.8392157, 0.8392157, 0.2509804 ],
			"type": "VEC4"
		 },
		"accessor_indices_0_m1-PolyGlass24_-205868": {
			"bufferView": "ushortBufferView",
			"byteOffset": 1560,
			"byteStride": 0,
			"componentType": 5123,
			"count": 1038,
			"max": [ 683 ],
			"min": [ 0 ],
			"type": "SCALAR"
		 }
	},
	"bufferViews": {
		"ushortBufferView": {
			"buffer": "model",
			"byteLength": 3636,
			"byteOffset": 0,
			"target": 34963
		},
		"vec3BufferView": {
			"buffer": "model",
			"byteLength": 29664,
			"byteOffset": 3636,
			"target": 34962
		},
		"vec4BufferView": {
			"buffer": "model",
			"byteLength": 19776,
			"byteOffset": 33300,
			"target": 34962
		}
	},
	"meshes": {
		"mesh_m0-PolyPaper14_-205870": {
			"name": "mesh_m0-PolyPaper14_-205870",
			"primitives": [
				{
					"attributes": {
						"POSITION": "accessor_position_m0-PolyPaper14_-205870",
						"NORMAL": "accessor_normal_m0-PolyPaper14_-205870",
						"COLOR": "accessor_color_m0-PolyPaper14_-205870"
					},
					"indices": "accessor_indices_0_m0-PolyPaper14_-205870",
					"material": "material_mat14",
					"mode": 4
				}
			]
		},
		"mesh_m1-PolyGlass24_-205868": {
			"name": "mesh_m1-PolyGlass24_-205868",
			"primitives": [
				{
					"attributes": {
						"POSITION": "accessor_position_m1-PolyGlass24_-205868",
						"NORMAL": "accessor_normal_m1-PolyGlass24_-205868",
						"COLOR": "accessor_color_m1-PolyGlass24_-205868"
					},
					"indices": "accessor_indices_0_m1-PolyGlass24_-205868",
					"material": "material_mat24",
					"mode": 4
				}
			]
		}
	},
	"shaders": {
		"vertex_mat14": {
			"type": 35633,
			"uri": "https://vr.google.com/shaders/w/vs.glsl"
		},
		"fragment_mat14": {
			"type": 35632,
			"uri": "https://vr.google.com/shaders/w/fs.glsl"
		},
		"vertex_mat24": {
			"type": 35633,
			"uri": "https://vr.google.com/shaders/w/glassVS.glsl"
		},
		"fragment_mat24": {
			"type": 35632,
			"uri": "https://vr.google.com/shaders/w/glassFS.glsl"
		}
	},
	"programs": {
		"program_mat14": {
			"attributes": [
				"a_position",
				"a_normal",
				"a_color"				
			],
			"vertexShader": "vertex_mat14",
			"fragmentShader": "fragment_mat14"
		},
		"program_mat24": {
			"attributes": [
				"a_position",
				"a_normal",
				"a_color"				
			],
			"vertexShader": "vertex_mat24",
			"fragmentShader": "fragment_mat24"
		}
	},
	"techniques": {
		"technique_mat14": {
			"program": "program_mat14",
			"extras": {"gvrss" : "https://vr.google.com/shaders/w/gvrss/paper.json"},
			"parameters": {
				"position": {
					"type": 35665,
					"semantic": "POSITION"
				},
				"normal": {
					"type": 35665,
					"semantic": "NORMAL"
				},
				"color": {
					"type": 35666,
					"semantic": "COLOR"
				},
				"modelViewMatrix": {
					"type": 35676,
					"semantic": "MODELVIEW"
				},
				"projectionMatrix": {
					"type": 35676,
					"semantic": "PROJECTION"
				},
				"normalMatrix": {
					"type": 35675,
					"semantic": "MODELVIEWINVERSETRANSPOSE"
				},
				"color": {
					"type": 35666
				},
				"roughness": {
					"type": 5126
				},
				"metallic": {
					"type": 5126
				},
				"light0Pos": {
					"type": 35666
				},
				"light0Color": {
					"type": 35666
				},
				"light1Pos": {
					"type": 35666
				},
				"light1Color": {
					"type": 35666
				}				
			},
			"attributes": {
				"a_position": "position",
				"a_normal": "normal",
				"a_color": "color"				
			},
			"uniforms": {
				"u_modelViewMatrix": "modelViewMatrix",
				"u_projectionMatrix": "projectionMatrix",
				"u_normalMatrix": "normalMatrix",
				"u_color": "color",
				"u_roughness": "roughness",
				"u_metallic": "metallic",
				"u_light0Pos": "light0Pos",
				"u_light0Color": "light0Color",
				"u_light1Pos": "light1Pos",
				"u_light1Color": "light1Color"				
			},
			"states": {
				"enable": [
					2929,
					2884
				],
				"functions": {
					"cullFace": [1029]
				}
			}
		},
		"technique_mat24": {
			"program": "program_mat24",
			"extras": {"gvrss" : "https://vr.google.com/shaders/w/gvrss/glass.json"},
			"parameters": {
				"position": {
					"type": 35665,
					"semantic": "POSITION"
				},
				"normal": {
					"type": 35665,
					"semantic": "NORMAL"
				},
				"color": {
					"type": 35666,
					"semantic": "COLOR"
				},
				"modelViewMatrix": {
					"type": 35676,
					"semantic": "MODELVIEW"
				},
				"projectionMatrix": {
					"type": 35676,
					"semantic": "PROJECTION"
				},
				"normalMatrix": {
					"type": 35675,
					"semantic": "MODELVIEWINVERSETRANSPOSE"
				},
				"color": {
					"type": 35666
				},
				"roughness": {
					"type": 5126
				},
				"metallic": {
					"type": 5126
				},
				"light0Pos": {
					"type": 35666
				},
				"light0Color": {
					"type": 35666
				},
				"light1Pos": {
					"type": 35666
				},
				"light1Color": {
					"type": 35666
				}				
			},
			"attributes": {
				"a_position": "position",
				"a_normal": "normal",
				"a_color": "color"				
			},
			"uniforms": {
				"u_modelViewMatrix": "modelViewMatrix",
				"u_projectionMatrix": "projectionMatrix",
				"u_normalMatrix": "normalMatrix",
				"u_color": "color",
				"u_roughness": "roughness",
				"u_metallic": "metallic",
				"u_light0Pos": "light0Pos",
				"u_light0Color": "light0Color",
				"u_light1Pos": "light1Pos",
				"u_light1Color": "light1Color"				
			},
			"states": {
				"enable": [
					2929,
					3042
				],
				"functions": {
					"blendFuncSeparate": [775, 774, 773, 772],
					"depthMask": [true]
				}
			}
		}
	},
	"materials": {
		"material_mat14": {
			"technique": "technique_mat14",
			"values": {
				"color": [1, 0.3411765, 0.1333333, 1],
				"roughness": 0.72,
				"metallic": 0,
				"light0Pos": [-0.02, 4.11, -0.54, 0],
				"light0Color": [0.8, 0.8, 0.8, 0],
				"light1Pos": [0.02, -4.11, 0.54, 0],
				"light1Color": [0.64, 0.64, 0.64, 0]				
			},
			"name": "material_mat14"
		},
		"material_mat24": {
			"technique": "technique_mat24",
			"values": {
				"color": [0.8392157, 0.8392157, 0.8392157, 0.2509804],
				"roughness": 0,
				"metallic": 0,
				"light0Pos": [-0.02, 4.11, -0.54, 0],
				"light0Color": [0.8, 0.8, 0.8, 0],
				"light1Pos": [0.02, -4.11, 0.54, 0],
				"light1Color": [0.64, 0.64, 0.64, 0]				
			},
			"name": "material_mat24"
		}
	},
	"nodes": {
		"node_MeshObject1680058496-PolyPaper14": {
			"name": "node_MeshObject1680058496-PolyPaper14",
			"meshes": [
				"mesh_m0-PolyPaper14_-205870"
			],
			"matrix": [1, 0, 0, 0, 0, 1, 0, 0, 0, 0, 1, 0, 0, 0, 0, 1]
		},
		"node_MeshObject1161338432-PolyGlass24": {
			"name": "node_MeshObject1161338432-PolyGlass24",
			"meshes": [
				"mesh_m1-PolyGlass24_-205868"
			],
			"matrix": [1, 0, 0, 0, 0, 1, 0, 0, 0, 0, 1, 0, 0, 0, 0, 1]
		}
	},
	"scene": "defaultScene",
	"scenes": {
		"defaultScene": {
			"nodes": [
				"node_MeshObject1680058496-PolyPaper14",
				"node_MeshObject1161338432-PolyGlass24"
			],
			"extras": {

			}
		}
	}
}