{
	"asset": {
		"generator": "Blocks 4.0.1_OVR_RC0",
		"version": "1.1",
		"copyright": "Unknown"
	},
	"buffers": {
		"model": {
			"byteLength": 123076,
			"type": "arraybuffer",
			"uri": "model.bin"
		}
	},
	"accessors": {
		"accessor_position_m1-PolyPaper18_-13774": {
			"bufferView": "vec3BufferView",
			"byteOffset": 0,
			"byteStride": 12,
			"componentType": 5126,
			"count": 2872,
			"max": [ 0.3033423, 2.299011, 1.262265 ],
			"min": [ -0.5163369, 0.1448355, 0.6234423 ],
			"type": "VEC3"
		 },
		"accessor_normal_m1-PolyPaper18_-13774": {
			"bufferView": "vec3BufferView",
			"byteOffset": 34464,
			"byteStride": 12,
			"componentType": 5126,
			"count": 2872,
			"max": [ 0.9974917, 0.9999384, 0.9993618 ],
			"min": [ -0.9985234, -0.9995853, -0.9988483 ],
			"type": "VEC3"
		 },
		"accessor_color_m1-PolyPaper18_-13774": {
			"bufferView": "vec4BufferView",
			"byteOffset": 0,
			"byteStride": 16,
			"componentType": 5126,
			"count": 2872,
			"max": [ 1, 1, 1, 1 ],
			"min": [ 0.1019608, 0.1019608, 0.1019608, 1 ],
			"type": "VEC4"
		 },
		"accessor_indices_0_m1-PolyPaper18_-13774": {
			"bufferView": "ushortBufferView",
			"byteOffset": 0,
			"byteStride": 0,
			"componentType": 5123,
			"count": 4098,
			"max": [ 2871 ],
			"min": [ 0 ],
			"type": "SCALAR"
		 }
	},
	"bufferViews": {
		"ushortBufferView": {
			"buffer": "model",
			"byteLength": 8196,
			"byteOffset": 0,
			"target": 34963
		},
		"vec3BufferView": {
			"buffer": "model",
			"byteLength": 68928,
			"byteOffset": 8196,
			"target": 34962
		},
		"vec4BufferView": {
			"buffer": "model",
			"byteLength": 45952,
			"byteOffset": 77124,
			"target": 34962
		}
	},
	"meshes": {
		"mesh_m1-PolyPaper18_-13774": {
			"name": "mesh_m1-PolyPaper18_-13774",
			"primitives": [
				{
					"attributes": {
						"POSITION": "accessor_position_m1-PolyPaper18_-13774",
						"NORMAL": "accessor_normal_m1-PolyPaper18_-13774",
						"COLOR": "accessor_color_m1-PolyPaper18_-13774"
					},
					"indices": "accessor_indices_0_m1-PolyPaper18_-13774",
					"material": "material_mat18",
					"mode": 4
				}
			]
		}
	},
	"shaders": {
		"vertex_mat24": {
			"type": 35633,
			"uri": "https://vr.google.com/shaders/w/glassVS.glsl"
		},
		"fragment_mat24": {
			"type": 35632,
			"uri": "https://vr.google.com/shaders/w/glassFS.glsl"
		},
		"vertex_mat18": {
			"type": 35633,
			"uri": "https://vr.google.com/shaders/w/vs.glsl"
		},
		"fragment_mat18": {
			"type": 35632,
			"uri": "https://vr.google.com/shaders/w/fs.glsl"
		},
		"vertex_mat25": {
			"type": 35633,
			"uri": "https://vr.google.com/shaders/w/gemVS.glsl"
		},
		"fragment_mat25": {
			"type": 35632,
			"uri": "https://vr.google.com/shaders/w/gemFS.glsl"
		}
	},
	"programs": {
		"program_mat24": {
			"attributes": [
				"a_position",
				"a_normal",
				"a_color"				
			],
			"vertexShader": "vertex_mat24",
			"fragmentShader": "fragment_mat24"
		},
		"program_mat18": {
			"attributes": [
				"a_position",
				"a_normal",
				"a_color"				
			],
			"vertexShader": "vertex_mat18",
			"fragmentShader": "fragment_mat18"
		},
		"program_mat25": {
			"attributes": [
				"a_position",
				"a_normal",
				"a_color"				
			],
			"vertexShader": "vertex_mat25",
			"fragmentShader": "fragment_mat25"
		}
	},
	"techniques": {
		"technique_mat24": {
			"program": "program_mat24",
			"extras": {"gvrss" : "https://vr.google.com/shaders/w/gvrss/glass.json"},
			"parameters": {
				"position": {
					"type": 35665,
					"semantic": "POSITION"
				},
				"normal": {
					"type": 35665,
					"semantic": "NORMAL"
				},
				"color": {
					"type": 35666,
					"semantic": "COLOR"
				},
				"modelViewMatrix": {
					"type": 35676,
					"semantic": "MODELVIEW"
				},
				"projectionMatrix": {
					"type": 35676,
					"semantic": "PROJECTION"
				},
				"normalMatrix": {
					"type": 35675,
					"semantic": "MODELVIEWINVERSETRANSPOSE"
				},
				"color": {
					"type": 35666
				},
				"roughness": {
					"type": 5126
				},
				"metallic": {
					"type": 5126
				},
				"light0Pos": {
					"type": 35666
				},
				"light0Color": {
					"type": 35666
				},
				"light1Pos": {
					"type": 35666
				},
				"light1Color": {
					"type": 35666
				}				
			},
			"attributes": {
				"a_position": "position",
				"a_normal": "normal",
				"a_color": "color"				
			},
			"uniforms": {
				"u_modelViewMatrix": "modelViewMatrix",
				"u_projectionMatrix": "projectionMatrix",
				"u_normalMatrix": "normalMatrix",
				"u_color": "color",
				"u_roughness": "roughness",
				"u_metallic": "metallic",
				"u_light0Pos": "light0Pos",
				"u_light0Color": "light0Color",
				"u_light1Pos": "light1Pos",
				"u_light1Color": "light1Color"				
			},
			"states": {
				"enable": [
					2929,
					3042
				],
				"functions": {
					"blendFuncSeparate": [775, 774, 773, 772],
					"depthMask": [true]
				}
			}
		},
		"technique_mat18": {
			"program": "program_mat18",
			"extras": {"gvrss" : "https://vr.google.com/shaders/w/gvrss/paper.json"},
			"parameters": {
				"position": {
					"type": 35665,
					"semantic": "POSITION"
				},
				"normal": {
					"type": 35665,
					"semantic": "NORMAL"
				},
				"color": {
					"type": 35666,
					"semantic": "COLOR"
				},
				"modelViewMatrix": {
					"type": 35676,
					"semantic": "MODELVIEW"
				},
				"projectionMatrix": {
					"type": 35676,
					"semantic": "PROJECTION"
				},
				"normalMatrix": {
					"type": 35675,
					"semantic": "MODELVIEWINVERSETRANSPOSE"
				},
				"color": {
					"type": 35666
				},
				"roughness": {
					"type": 5126
				},
				"metallic": {
					"type": 5126
				},
				"light0Pos": {
					"type": 35666
				},
				"light0Color": {
					"type": 35666
				},
				"light1Pos": {
					"type": 35666
				},
				"light1Color": {
					"type": 35666
				}				
			},
			"attributes": {
				"a_position": "position",
				"a_normal": "normal",
				"a_color": "color"				
			},
			"uniforms": {
				"u_modelViewMatrix": "modelViewMatrix",
				"u_projectionMatrix": "projectionMatrix",
				"u_normalMatrix": "normalMatrix",
				"u_color": "color",
				"u_roughness": "roughness",
				"u_metallic": "metallic",
				"u_light0Pos": "light0Pos",
				"u_light0Color": "light0Color",
				"u_light1Pos": "light1Pos",
				"u_light1Color": "light1Color"				
			},
			"states": {
				"enable": [
					2929,
					2884
				],
				"functions": {
					"cullFace": [1029]
				}
			}
		},
		"technique_mat25": {
			"program": "program_mat25",
			"extras": {"gvrss" : "https://vr.google.com/shaders/w/gvrss/gem.json"},
			"parameters": {
				"position": {
					"type": 35665,
					"semantic": "POSITION"
				},
				"normal": {
					"type": 35665,
					"semantic": "NORMAL"
				},
				"color": {
					"type": 35666,
					"semantic": "COLOR"
				},
				"modelViewMatrix": {
					"type": 35676,
					"semantic": "MODELVIEW"
				},
				"projectionMatrix": {
					"type": 35676,
					"semantic": "PROJECTION"
				},
				"normalMatrix": {
					"type": 35675,
					"semantic": "MODELVIEWINVERSETRANSPOSE"
				},
				"color": {
					"type": 35666
				},
				"roughness": {
					"type": 5126
				},
				"metallic": {
					"type": 5126
				},
				"gem": {
					"type": 35678
				},
				"light0Pos": {
					"type": 35666
				},
				"light0Color": {
					"type": 35666
				},
				"light1Pos": {
					"type": 35666
				},
				"light1Color": {
					"type": 35666
				}				
			},
			"attributes": {
				"a_position": "position",
				"a_normal": "normal",
				"a_color": "color"				
			},
			"uniforms": {
				"u_modelViewMatrix": "modelViewMatrix",
				"u_projectionMatrix": "projectionMatrix",
				"u_normalMatrix": "normalMatrix",
				"u_color": "color",
				"u_roughness": "roughness",
				"u_metallic": "metallic",
				"u_gem": "gem",
				"u_light0Pos": "light0Pos",
				"u_light0Color": "light0Color",
				"u_light1Pos": "light1Pos",
				"u_light1Color": "light1Color"				
			},
			"states": {
				"enable": [
					2929,
					2884
				],
				"functions": {
					"cullFace": [1029]
				}
			}
		}
	},
	"samplers": {
		"sampler_LINEAR_LINEAR_REPEAT": {
			"magFilter": 9729,
			"minFilter": 9987,
			"wrapS": 10497,
			"wrapT": 10497
		}
	},
	"textures": {
		"texture_mat25_gem": {
			"format": 6408,
			"internalFormat": 6408,
			"sampler": "sampler_LINEAR_LINEAR_REPEAT",
			"source": "image_mat25_gem",
			"target": 3553,
			"type": 5121
		}
	},
	"images": {
		"image_mat25_gem": {
			"uri": "https://vr.google.com/shaders/w/GemRefractions.png"
		}
	},
	"materials": {
		"material_mat24": {
			"technique": "technique_mat24",
			"values": {
				"color": [0.8392157, 0.8392157, 0.8392157, 0.2509804],
				"roughness": 0,
				"metallic": 0,
				"light0Pos": [-0.02, 4.11, -0.54, 0],
				"light0Color": [1.28, 1.232075, 1.101177, 0],
				"light1Pos": [0.02, -4.11, 0.54, 0],
				"light1Color": [0.2941177, 0.2953672, 0.32, 0]				
			},
			"name": "material_mat24"
		},
		"material_mat18": {
			"technique": "technique_mat18",
			"values": {
				"color": [1, 0.8, 0.5333334, 1],
				"roughness": 1,
				"metallic": 0,
				"light0Pos": [-0.02, 4.11, -0.54, 0],
				"light0Color": [1.28, 1.232075, 1.101177, 0],
				"light1Pos": [0.02, -4.11, 0.54, 0],
				"light1Color": [0.2941177, 0.2953672, 0.32, 0]				
			},
			"name": "material_mat18"
		},
		"material_mat25": {
			"technique": "technique_mat25",
			"values": {
				"color": [1, 1, 1, 1],
				"roughness": 0.001,
				"metallic": 0,
				"gem": "texture_mat25_gem",
				"light0Pos": [-0.02, 4.11, -0.54, 0],
				"light0Color": [1.28, 1.232075, 1.101177, 0],
				"light1Pos": [0.02, -4.11, 0.54, 0],
				"light1Color": [0.2941177, 0.2953672, 0.32, 0]				
			},
			"name": "material_mat25"
		}
	},
	"nodes": {
		"node_MeshObject-814183424-PolyPaper18": {
			"name": "node_MeshObject-814183424-PolyPaper18",
			"meshes": [
				"mesh_m1-PolyPaper18_-13774"
			],
			"matrix": [1, 0, 0, 0, 0, 1, 0, 0, 0, 0, 1, 0, 0, 0, 0, 1]
		}
	},
	"scene": "defaultScene",
	"scenes": {
		"defaultScene": {
			"nodes": [
				"node_MeshObject-814183424-PolyPaper18"
			],
			"extras": {

			}
		}
	}
}